HIERARCHY
ROOT Hips
{
	OFFSET 0.000000 100.481300 0.000000
	CHANNELS 6 Xposition Yposition Zposition Xrotation Yrotation Zrotation
	JOINT Spine
	{
		OFFSET -0.279200 12.230698 -2.892100
		CHANNELS 3 Xrotation Yrotation Zrotation
		JOINT Spine1
		{
			OFFSET -0.325700 14.269203 -3.374200
			CHANNELS 3 Xrotation Yrotation Zrotation
			JOINT Spine2
			{
				OFFSET -0.372300 16.307602 -0.352600
				CHANNELS 3 Xrotation Yrotation Zrotation
				JOINT Neck
				{
					OFFSET -0.418800 17.814194 8.416900
					CHANNELS 3 Xrotation Yrotation Zrotation
					JOINT Head
					{
						OFFSET 0.000000 7.031097 3.806800
						CHANNELS 3 Xrotation Yrotation Zrotation
						JOINT HeadTop_End
						{
							OFFSET 0.000000 24.646606 12.978600
							CHANNELS 3 Xrotation Yrotation Zrotation
							End Site
							{
								OFFSET 0.000000 27.854965 0.000000
							}
						}
					}
				}
				JOINT LeftShoulder
				{
					OFFSET 16.952999 14.495407 -7.737500
					CHANNELS 3 Xrotation Yrotation Zrotation
					JOINT LeftArm
					{
						OFFSET 9.308998 -2.777710 0.208600
						CHANNELS 3 Xrotation Yrotation Zrotation
						JOINT LeftForeArm
						{
							OFFSET 29.972298 0.000000 0.000000
							CHANNELS 3 Xrotation Yrotation Zrotation
							JOINT LeftHand
							{
								OFFSET 26.026505 0.000000 0.000000
								CHANNELS 3 Xrotation Yrotation Zrotation
								JOINT LeftHandThumb1
								{
									OFFSET 12.240501 -7.147949 9.207150
									CHANNELS 3 Xrotation Yrotation Zrotation
									JOINT LeftHandThumb2
									{
										OFFSET 4.138618 -2.389435 2.389433
										CHANNELS 3 Xrotation Yrotation Zrotation
										JOINT LeftHandThumb3
										{
											OFFSET 2.726913 -1.574387 1.574386
											CHANNELS 3 Xrotation Yrotation Zrotation
											JOINT LeftHandThumb4
											{
												OFFSET 3.941010 -2.275345 2.275342
												CHANNELS 3 Xrotation Yrotation Zrotation
												End Site
												{
													OFFSET -0.005798 5.087799 0.009903
												}
											}
										}
									}
								}
								JOINT LeftHandIndex1
								{
									OFFSET 24.424698 -1.985611 5.953459
									CHANNELS 3 Xrotation Yrotation Zrotation
									JOINT LeftHandIndex2
									{
										OFFSET 6.426697 0.000000 0.000000
										CHANNELS 3 Xrotation Yrotation Zrotation
										JOINT LeftHandIndex3
										{
											OFFSET 5.337898 0.000000 0.000000
											CHANNELS 3 Xrotation Yrotation Zrotation
											JOINT LeftHandIndex4
											{
												OFFSET 4.409401 0.000000 0.000000
												CHANNELS 3 Xrotation Yrotation Zrotation
												End Site
												{
													OFFSET 0.000000 4.409363 0.014373
												}
											}
										}
									}
								}
								JOINT LeftHandMiddle1
								{
									OFFSET 23.810104 0.000000 0.000000
									CHANNELS 3 Xrotation Yrotation Zrotation
									JOINT LeftHandMiddle2
									{
										OFFSET 7.176498 0.000000 0.000000
										CHANNELS 3 Xrotation Yrotation Zrotation
										JOINT LeftHandMiddle3
										{
											OFFSET 6.774902 0.000000 0.000000
											CHANNELS 3 Xrotation Yrotation Zrotation
											JOINT LeftHandMiddle4
											{
												OFFSET 5.403328 0.000000 0.000000
												CHANNELS 3 Xrotation Yrotation Zrotation
												End Site
												{
													OFFSET -0.027702 5.403244 0.017414
												}
											}
										}
									}
								}
								JOINT LeftHandRing1
								{
									OFFSET 22.908401 -0.839279 -6.020567
									CHANNELS 3 Xrotation Yrotation Zrotation
									JOINT LeftHandRing2
									{
										OFFSET 6.337502 0.000000 0.000000
										CHANNELS 3 Xrotation Yrotation Zrotation
										JOINT LeftHandRing3
										{
											OFFSET 5.779297 0.000000 0.000000
											CHANNELS 3 Xrotation Yrotation Zrotation
											JOINT LeftHandRing4
											{
												OFFSET 4.965698 0.000000 0.000000
												CHANNELS 3 Xrotation Yrotation Zrotation
												End Site
												{
													OFFSET 0.000000 4.965668 0.016186
												}
											}
										}
									}
								}
								JOINT LeftHandPinky1
								{
									OFFSET 20.037003 -1.530319 -10.950146
									CHANNELS 3 Xrotation Yrotation Zrotation
									JOINT LeftHandPinky2
									{
										OFFSET 5.254700 0.000000 0.000000
										CHANNELS 3 Xrotation Yrotation Zrotation
										JOINT LeftHandPinky3
										{
											OFFSET 4.810204 0.000000 0.000000
											CHANNELS 3 Xrotation Yrotation Zrotation
											JOINT LeftHandPinky4
											{
												OFFSET 3.647202 0.000000 0.000000
												CHANNELS 3 Xrotation Yrotation Zrotation
												End Site
												{
													OFFSET 0.000000 3.647186 0.011889
												}
											}
										}
									}
								}
							}
						}
					}
				}
				JOINT RightShoulder
				{
					OFFSET -15.141001 14.495407 -7.737500
					CHANNELS 3 Xrotation Yrotation Zrotation
					JOINT RightArm
					{
						OFFSET -9.308998 -2.777710 0.208500
						CHANNELS 3 Xrotation Yrotation Zrotation
						JOINT RightForeArm
						{
							OFFSET -29.972300 0.000000 0.000000
							CHANNELS 3 Xrotation Yrotation Zrotation
							JOINT RightHand
							{
								OFFSET -26.026505 0.000000 0.000000
								CHANNELS 3 Xrotation Yrotation Zrotation
								JOINT RightHandThumb1
								{
									OFFSET -12.240601 -7.148026 9.207092
									CHANNELS 3 Xrotation Yrotation Zrotation
									JOINT RightHandThumb2
									{
										OFFSET -4.138618 -2.389435 2.389433
										CHANNELS 3 Xrotation Yrotation Zrotation
										JOINT RightHandThumb3
										{
											OFFSET -2.726974 -1.574417 1.574421
											CHANNELS 3 Xrotation Yrotation Zrotation
											JOINT RightHandThumb4
											{
												OFFSET -3.941010 -2.275345 2.275343
												CHANNELS 3 Xrotation Yrotation Zrotation
												End Site
												{
													OFFSET 0.005814 5.087799 0.009927
												}
											}
										}
									}
								}
								JOINT RightHandIndex1
								{
									OFFSET -24.424698 -1.985657 5.953444
									CHANNELS 3 Xrotation Yrotation Zrotation
									JOINT RightHandIndex2
									{
										OFFSET -6.426697 0.000000 0.000000
										CHANNELS 3 Xrotation Yrotation Zrotation
										JOINT RightHandIndex3
										{
											OFFSET -5.337898 0.000000 0.000000
											CHANNELS 3 Xrotation Yrotation Zrotation
											JOINT RightHandIndex4
											{
												OFFSET -4.409401 0.000000 0.000000
												CHANNELS 3 Xrotation Yrotation Zrotation
												End Site
												{
													OFFSET 0.000000 4.409363 0.014408
												}
											}
										}
									}
								}
								JOINT RightHandMiddle1
								{
									OFFSET -23.810097 0.000000 0.000000
									CHANNELS 3 Xrotation Yrotation Zrotation
									JOINT RightHandMiddle2
									{
										OFFSET -7.176498 0.000000 0.000000
										CHANNELS 3 Xrotation Yrotation Zrotation
										JOINT RightHandMiddle3
										{
											OFFSET -6.774902 0.000000 0.000000
											CHANNELS 3 Xrotation Yrotation Zrotation
											JOINT RightHandMiddle4
											{
												OFFSET -5.403328 0.000000 0.000000
												CHANNELS 3 Xrotation Yrotation Zrotation
												End Site
												{
													OFFSET 0.027702 5.403244 0.017457
												}
											}
										}
									}
								}
								JOINT RightHandRing1
								{
									OFFSET -22.908302 -0.839325 -6.020576
									CHANNELS 3 Xrotation Yrotation Zrotation
									JOINT RightHandRing2
									{
										OFFSET -6.337502 0.000000 0.000000
										CHANNELS 3 Xrotation Yrotation Zrotation
										JOINT RightHandRing3
										{
											OFFSET -5.779297 0.000000 0.000000
											CHANNELS 3 Xrotation Yrotation Zrotation
											JOINT RightHandRing4
											{
												OFFSET -4.965698 0.000000 0.000000
												CHANNELS 3 Xrotation Yrotation Zrotation
												End Site
												{
													OFFSET 0.000000 4.965668 0.016226
												}
											}
										}
									}
								}
								JOINT RightHandPinky1
								{
									OFFSET -20.037003 -1.530334 -10.950259
									CHANNELS 3 Xrotation Yrotation Zrotation
									JOINT RightHandPinky2
									{
										OFFSET -5.254700 0.000000 0.000000
										CHANNELS 3 Xrotation Yrotation Zrotation
										JOINT RightHandPinky3
										{
											OFFSET -4.810204 0.000000 0.000000
											CHANNELS 3 Xrotation Yrotation Zrotation
											JOINT RightHandPinky4
											{
												OFFSET -3.647202 0.000000 0.000000
												CHANNELS 3 Xrotation Yrotation Zrotation
												End Site
												{
													OFFSET 0.000000 3.647186 0.011917
												}
											}
										}
									}
								}
							}
						}
					}
				}
			}
		}
	}
	JOINT LeftUpLeg
	{
		OFFSET 15.427100 -6.655098 0.678600
		CHANNELS 3 Xrotation Yrotation Zrotation
		JOINT LeftLeg
		{
			OFFSET 4.081073 -39.591068 13.024000
			CHANNELS 3 Xrotation Yrotation Zrotation
			JOINT LeftFoot
			{
				OFFSET -4.081074 -37.707932 -15.979700
				CHANNELS 3 Xrotation Yrotation Zrotation
				JOINT LeftToeBase
				{
					OFFSET 5.346399 -15.068900 20.645000
					CHANNELS 3 Xrotation Yrotation Zrotation
					JOINT LeftToe_End
					{
						OFFSET 2.754700 0.931300 11.300900
						CHANNELS 3 Xrotation Yrotation Zrotation
						End Site
						{
							OFFSET 0.000000 11.669021 0.000000
						}
					}
				}
			}
		}
	}
	JOINT RightUpLeg
	{
		OFFSET -15.569500 -6.655098 0.678600
		CHANNELS 3 Xrotation Yrotation Zrotation
		JOINT RightLeg
		{
			OFFSET -4.081825 -39.591045 13.023800
			CHANNELS 3 Xrotation Yrotation Zrotation
			JOINT RightFoot
			{
				OFFSET 4.081824 -37.707954 -15.979600
				CHANNELS 3 Xrotation Yrotation Zrotation
				JOINT RightToeBase
				{
					OFFSET -5.346400 -15.068900 20.645000
					CHANNELS 3 Xrotation Yrotation Zrotation
					JOINT RightToe_End
					{
						OFFSET -2.754700 0.931300 11.300900
						CHANNELS 3 Xrotation Yrotation Zrotation
						End Site
						{
							OFFSET 0.000000 11.669021 0.000000
						}
					}
				}
			}
		}
	}
}
MOTION
Frames: 4
Frame Time: 0.033333
0.856000 97.468788 -0.678045 -4.241418 -2.939418 -3.365567 3.310811 1.609488 2.731398 1.169150 0.494076 1.532199 1.143322 0.524918 1.525645 10.930129 -0.121189 1.088513 -1.117546 0.849962 1.869032 -0.000000 0.000000 0.000000 1.079749 -17.246981 -12.117033 4.379942 -18.896656 -68.638039 -0.000003 -1.968875 -0.000012 -34.723080 -2.342661 -5.983920 -1.299409 1.193198 4.739902 13.277164 25.354764 12.341104 -13.613182 2.242462 8.299216 -0.000002 0.000000 0.000002 0.428117 -1.222207 -4.285174 0.236293 1.648636 -16.311817 0.043442 0.712895 -6.974211 -0.000000 -0.000000 -0.000001 -0.007588 2.612278 -11.691820 0.259035 1.724411 -17.084453 0.290221 1.822756 -18.092160 0.000000 -0.000000 0.000002 0.093990 3.280430 -15.826199 0.357133 2.015970 -20.089705 0.257757 1.720257 -17.042046 0.000000 -0.000000 0.000000 0.848296 5.595409 -22.232787 0.243781 1.673999 -16.570068 0.225563 1.611536 -15.934654 -0.000000 0.000000 -0.000004 1.115562 15.460700 15.139876 13.560275 27.450494 57.506525 -0.000005 8.504022 0.000014 -21.976383 -0.149166 5.827359 -3.096320 3.882242 -3.354904 13.608460 -30.485320 -13.734528 -13.932035 -0.589690 -11.472617 0.000000 -0.000000 -0.000000 1.123513 0.096237 3.829066 0.152646 -1.183783 14.694235 0.010128 -0.307298 3.775065 -0.000002 0.000000 -0.000000 0.058770 -2.900824 14.092835 0.202991 -1.361342 16.961009 0.227838 -1.440282 17.977582 0.000001 -0.000000 -0.000001 -0.163370 -2.803137 24.100348 0.402794 -1.896357 23.981530 0.308260 -1.667790 20.942016 0.000001 0.000000 0.000000 0.950639 -5.172036 29.445249 0.278962 -1.589161 19.911284 0.254483 -1.519919 19.009123 0.000001 0.000002 0.000002 -10.472627 14.778911 10.511431 12.331318 -0.456355 4.395171 1.356828 0.596901 -7.775498 -4.974058 0.000001 0.000001 -0.000000 0.000001 -0.000000 4.215571 -10.055044 1.819892 7.466666 -8.781970 -3.118623 -6.122216 -5.147901 5.343790 -7.269058 -0.000001 -0.000000 0.000000 0.000000 0.000000 
0.862138 97.445633 -0.644651 -4.307703 -3.062489 -3.397252 3.294005 1.597995 2.734584 1.146485 0.475718 1.532298 1.120641 0.506475 1.525032 10.619446 -0.140007 1.087708 -1.433873 0.780926 1.815763 0.000000 0.000000 -0.000000 1.074908 -17.272888 -12.147470 4.434319 -19.413442 -68.440435 0.000002 -2.327035 -0.000007 -35.036319 -2.455466 -6.093358 -1.271543 1.234736 4.748964 13.175582 25.355440 12.652083 -13.587140 2.341460 8.359171 -0.000000 0.000001 0.000000 0.359617 -1.209380 -4.632638 0.239233 1.658640 -16.413653 0.044720 0.723257 -7.076117 0.000000 -0.000000 -0.000000 -0.016058 2.598793 -12.017862 0.259875 1.727144 -17.112354 0.291103 1.825450 -18.119857 -0.000000 -0.000001 -0.000004 0.093441 3.295844 -16.209065 0.359378 2.022091 -20.153385 0.259677 1.726507 -17.105908 0.000001 -0.000000 -0.000000 0.840361 5.559419 -22.453801 0.244556 1.676601 -16.596554 0.226585 1.615110 -15.970922 0.000000 0.000000 -0.000006 1.115409 15.381466 15.144143 13.555126 27.802673 57.483179 -0.000003 8.763481 0.000013 -22.157228 0.143283 5.653563 -3.092851 4.075367 -3.262645 13.602823 -30.463429 -13.751318 -14.028450 -0.743294 -11.512435 -0.000004 -0.000000 0.000003 1.134199 0.088455 3.829468 0.155602 -1.195014 14.836948 0.009735 -0.301316 3.701435 0.000000 0.000000 0.000001 0.044359 -2.850970 14.273808 0.202849 -1.360863 16.954896 0.227664 -1.439743 17.970709 -0.000003 -0.000001 0.000001 -0.139083 -2.848958 23.961414 0.393902 -1.876236 23.711184 0.300400 -1.647121 20.670429 -0.000000 -0.000001 -0.000002 0.912999 -5.120286 29.428864 0.270471 -1.565544 19.602850 0.246358 -1.496122 18.700218 -0.000001 0.000001 0.000001 -10.390652 14.798795 10.578313 12.419621 -0.361838 4.385988 1.249893 0.605350 -7.793084 -4.978762 0.000003 0.000001 0.000000 0.000000 -0.000000 4.258914 -10.056842 1.801693 7.525504 -8.782524 -3.085657 -6.154373 -5.018605 5.351946 -7.278527 -0.000007 -0.000000 0.000000 0.000000 0.000000 
0.868872 97.433678 -0.622141 -4.347316 -3.201131 -3.434552 3.278945 1.586319 2.740576 1.126844 0.456683 1.533026 1.100971 0.487401 1.525304 10.318106 -0.154198 1.086292 -1.783251 0.727336 1.764779 -0.000000 0.000000 -0.000000 1.070642 -17.291109 -12.158096 4.454652 -19.913596 -68.296537 -0.000009 -2.617237 -0.000019 -35.112391 -2.475172 -6.151599 -1.243591 1.277144 4.755565 13.069519 25.356551 12.976375 -13.567136 2.417271 8.448868 -0.000001 -0.000000 -0.000001 0.315575 -1.196552 -4.882211 0.241971 1.667904 -16.508033 0.045919 0.732856 -7.170508 -0.000000 -0.000000 -0.000002 -0.023717 2.593352 -12.374670 0.260848 1.730303 -17.144670 0.292127 1.828570 -18.151959 0.000001 -0.000000 0.000001 0.094313 3.317566 -16.620314 0.361651 2.028269 -20.217688 0.261623 1.732808 -17.170296 0.000001 0.000000 -0.000001 0.839392 5.537691 -22.776577 0.245326 1.679181 -16.622819 0.227590 1.618612 -16.006521 -0.000000 0.000000 -0.000001 1.118171 15.360283 15.130872 13.508285 28.062660 57.539617 -0.000002 8.974811 0.000005 -22.307138 0.371726 5.474729 -3.136677 4.203958 -3.248997 13.603853 -30.448194 -13.747622 -14.088110 -0.828213 -11.532202 -0.000003 -0.000001 -0.000001 1.137441 0.090662 3.838051 0.158973 -1.207668 14.997666 0.009311 -0.294580 3.618653 0.000000 -0.000000 -0.000000 0.029429 -2.793986 14.312971 0.202289 -1.359030 16.931363 0.227054 -1.437865 17.946370 0.000001 -0.000001 0.000003 -0.120226 -2.879040 23.755386 0.386065 -1.858304 23.470781 0.293499 -1.628725 20.429012 -0.000000 0.000001 0.000001 0.875117 -5.067618 29.330943 0.263377 -1.545471 19.341468 0.239564 -1.475905 18.438265 -0.000002 -0.000002 0.000001 -10.324399 14.809949 10.652598 12.476854 -0.246461 4.371412 1.164210 0.615658 -7.815349 -4.981826 -0.000009 0.000001 0.000000 0.000001 -0.000000 4.284867 -10.059078 1.785139 7.541852 -8.782121 -3.040120 -6.153994 -4.873167 5.355903 -7.288576 0.000011 0.000002 0.000000 0.000001 0.000000 
0.876815 97.428673 -0.609407 -4.362394 -3.355664 -3.474628 3.266377 1.575212 2.747043 1.111237 0.438280 1.534229 1.085339 0.468997 1.526354 10.014369 -0.165539 1.082840 -2.170136 0.682268 1.715159 -0.000000 0.000000 0.000000 1.075260 -17.283418 -12.146463 4.423906 -20.358823 -68.241615 0.000005 -2.821015 0.000017 -35.043211 -2.459967 -6.152001 -1.240914 1.282123 4.753693 12.989701 25.357465 13.216482 -13.551691 2.479257 8.607565 -0.000000 0.000000 -0.000001 0.300169 -1.186654 -5.001103 0.244445 1.676225 -16.592760 0.047008 0.741465 -7.255206 0.000001 0.000000 -0.000001 -0.030947 2.590658 -12.724627 0.261853 1.733556 -17.177936 0.293185 1.831792 -18.185070 -0.000000 -0.000001 0.000001 0.096028 3.342780 -17.047843 0.363955 2.034514 -20.282745 0.263595 1.739177 -17.235395 0.000001 0.000000 -0.000004 0.842006 5.523526 -23.166248 0.246082 1.681710 -16.648622 0.228584 1.622069 -16.041681 0.000000 0.000000 -0.000001 1.124727 15.359036 15.101963 13.448920 28.268686 57.642391 0.000000 9.146196 -0.000014 -22.469685 0.493563 5.414021 -3.162800 4.284328 -3.246701 13.599715 -30.429442 -13.757027 -14.152024 -0.926832 -11.555253 -0.000000 0.000000 -0.000001 1.136736 0.097313 3.856986 0.162858 -1.222083 15.181127 0.008845 -0.287103 3.526532 0.000001 -0.000000 0.000000 0.014875 -2.737215 14.320275 0.201503 -1.356460 16.898371 0.226220 -1.435252 17.912683 -0.000001 0.000001 -0.000005 -0.101604 -2.908655 23.537235 0.378084 -1.839818 23.223169 0.286472 -1.609737 20.180415 0.000000 0.000001 -0.000000 0.832299 -5.007709 29.218617 0.257664 -1.529107 19.128529 0.234091 -1.459400 18.224676 -0.000000 -0.000002 0.000001 -10.273819 14.812870 10.731203 12.510141 -0.113401 4.353836 1.094658 0.628065 -7.844341 -4.984164 -0.000003 -0.000002 0.000000 -0.000000 -0.000000 4.287431 -10.060924 1.768840 7.532730 -8.781744 -2.986967 -6.133061 -4.712221 5.353675 -7.294122 -0.000013 -0.000002 0.000000 0.000001 0.000000 
